<svg id="Layer_1" data-name="Layer 1" xmlns="http://www.w3.org/2000/svg" xmlns:xlink="http://www.w3.org/1999/xlink" viewBox="0 0 500.79 500.78"><defs><style>.cls-1{fill:#5b2b03;}.cls-2{fill:#ffffe6;}.cls-3{fill:url(#linear-gradient);}.cls-17,.cls-4{stroke:#fcd801;}.cls-4{stroke-width:0.76px;fill:url(#linear-gradient-2);}.cls-5{stroke:#ededa6;stroke-width:1.22px;}.cls-6{stroke:#915300;stroke-width:0.79px;fill:url(#linear-gradient-3);}.cls-7{fill:#ffffd4;}.cls-8{fill:url(#radial-gradient);}.cls-9{fill:#061c46;}.cls-10{stroke:#48380f;stroke-width:1.44px;fill:url(#linear-gradient-4);}.cls-11{fill:url(#linear-gradient-5);}.cls-12{fill:url(#linear-gradient-6);}.cls-13{fill:#feeb7a;}.cls-14{fill:#f7f09f;}.cls-15{fill:#ffffcf;}.cls-16{fill:#aa8303;}.cls-17{stroke-width:0.76px;fill:url(#linear-gradient-7);}.cls-18{fill:url(#linear-gradient-8);}.cls-19{fill:url(#linear-gradient-9);}.cls-20{fill:url(#linear-gradient-10);}.cls-21{fill:url(#linear-gradient-11);}.cls-22{fill:url(#linear-gradient-12);}.cls-23{fill:url(#linear-gradient-13);}.cls-24{fill:url(#linear-gradient-14);}.cls-25{fill:#915300;}.cls-26{fill:#ffffbd;}.cls-27{fill:url(#linear-gradient-15);}</style><linearGradient id="linear-gradient" x1="326.9" y1="341.95" x2="666.74" y2="652.24" gradientUnits="userSpaceOnUse"><stop offset="0" stop-color="#fff58c"/><stop offset="0.35" stop-color="#efb418"/><stop offset="0.49" stop-color="#f0b716"/><stop offset="0.6" stop-color="#f4c20f"/><stop offset="0.71" stop-color="#fad304"/><stop offset="0.73" stop-color="#fcd801"/><stop offset="1" stop-color="#873d01"/></linearGradient><linearGradient id="linear-gradient-2" x1="343.1" y1="262.91" x2="693.34" y2="792.14" gradientUnits="userSpaceOnUse"><stop offset="0" stop-color="#c98a13"/><stop offset="0.1" stop-color="#f2e86f"/><stop offset="0.47" stop-color="#f0a403"/><stop offset="0.74" stop-color="#f6c54b"/><stop offset="1" stop-color="#ce7911"/></linearGradient><linearGradient id="linear-gradient-3" x1="566.27" y1="268.71" x2="434.16" y2="729.75" gradientUnits="userSpaceOnUse"><stop offset="0.01" stop-color="#845b04"/><stop offset="0.02" stop-color="#967312"/><stop offset="0.05" stop-color="#b29828"/><stop offset="0.08" stop-color="#cab83b"/><stop offset="0.12" stop-color="#ddd24a"/><stop offset="0.16" stop-color="#ece655"/><stop offset="0.2" stop-color="#f7f45e"/><stop offset="0.25" stop-color="#fdfd63"/><stop offset="0.34" stop-color="#ffff64"/><stop offset="0.38" stop-color="#fcfb62"/><stop offset="0.42" stop-color="#f3ee5c"/><stop offset="0.46" stop-color="#e4da53"/><stop offset="0.5" stop-color="#d0bd45"/><stop offset="0.55" stop-color="#b59834"/><stop offset="0.59" stop-color="#956a1e"/><stop offset="0.63" stop-color="#6f3505"/><stop offset="0.63" stop-color="#6a2e02"/><stop offset="0.83" stop-color="#e8c33c"/><stop offset="1" stop-color="#996304"/></linearGradient><radialGradient id="radial-gradient" cx="-2389.25" cy="-2490.37" r="63.55" gradientTransform="translate(12102.49 12742.52) scale(4.86)" gradientUnits="userSpaceOnUse"><stop offset="0" stop-color="#061c46"/><stop offset="0.11" stop-color="#0c214b"/><stop offset="0.26" stop-color="#1d3057"/><stop offset="0.43" stop-color="#39496c"/><stop offset="0.62" stop-color="#5f6c8a"/><stop offset="0.81" stop-color="#9098af"/><stop offset="1" stop-color="#c7c9d8"/></radialGradient><linearGradient id="linear-gradient-4" x1="354.15" y1="649.59" x2="630.23" y2="365.7" gradientUnits="userSpaceOnUse"><stop offset="0" stop-color="#eada5d"/><stop offset="0.1" stop-color="#ffffe3"/><stop offset="0.47" stop-color="#ea7b19"/><stop offset="0.74" stop-color="#fffab3"/><stop offset="1" stop-color="#b14403"/></linearGradient><linearGradient id="linear-gradient-5" x1="502.44" y1="638.52" x2="502.44" y2="474.71" gradientUnits="userSpaceOnUse"><stop offset="0" stop-color="#a67903"/><stop offset="0.24" stop-color="#d6c022"/><stop offset="0.58" stop-color="#f4d87a"/><stop offset="1" stop-color="#8e7104"/></linearGradient><linearGradient id="linear-gradient-6" x1="462.87" y1="266.73" x2="547.37" y2="768.93" gradientUnits="userSpaceOnUse"><stop offset="0.06" stop-color="#f2bd3e"/><stop offset="0.25" stop-color="#f3dd46"/><stop offset="0.47" stop-color="#dda31e"/><stop offset="0.65" stop-color="#bb7502"/><stop offset="0.89" stop-color="#f4d838"/><stop offset="1" stop-color="#c06b13"/></linearGradient><linearGradient id="linear-gradient-7" x1="261.73" y1="365.92" x2="763.79" y2="649.31" gradientUnits="userSpaceOnUse"><stop offset="0" stop-color="#ce9525"/><stop offset="0.21" stop-color="#ffffad"/><stop offset="0.47" stop-color="#f2b424"/><stop offset="0.74" stop-color="#ffffa8"/><stop offset="1" stop-color="#d38723"/></linearGradient><linearGradient id="linear-gradient-8" x1="256.91" y1="389.46" x2="491.68" y2="389.46" gradientUnits="userSpaceOnUse"><stop offset="0" stop-color="#f2e863"/><stop offset="0.03" stop-color="#f3ea71"/><stop offset="0.14" stop-color="#f7f29c"/><stop offset="0.25" stop-color="#fbf7be"/><stop offset="0.35" stop-color="#fdfcd7"/><stop offset="0.45" stop-color="#fffee6"/><stop offset="0.52" stop-color="#ffffeb"/><stop offset="0.58" stop-color="#fffde6"/><stop offset="0.66" stop-color="#fef7d6"/><stop offset="0.75" stop-color="#fceebc"/><stop offset="0.84" stop-color="#fae198"/><stop offset="0.94" stop-color="#f8d16b"/><stop offset="1" stop-color="#f6c54b"/></linearGradient><linearGradient id="linear-gradient-9" x1="-7757.09" y1="-7598.92" x2="-7544.82" y2="-7598.92" gradientTransform="translate(-7030.01 -6992.93) rotate(180)" xlink:href="#linear-gradient-8"/><linearGradient id="linear-gradient-10" x1="513.99" y1="615.15" x2="741.73" y2="615.15" gradientUnits="userSpaceOnUse"><stop offset="0.1" stop-color="#f2e86f"/><stop offset="0.47" stop-color="#995101"/><stop offset="1" stop-color="#f6c54b"/></linearGradient><linearGradient id="linear-gradient-11" x1="-7282.12" y1="576.23" x2="-7047.3" y2="576.23" gradientTransform="matrix(0.05, -1, 1, 0.05, 183.82, -6563.01)" xlink:href="#linear-gradient-8"/><linearGradient id="linear-gradient-12" x1="-783.4" y1="-8243.9" x2="-588.89" y2="-8243.9" gradientTransform="translate(-7608.81 -432.08) rotate(100.45)" xlink:href="#linear-gradient-8"/><linearGradient id="linear-gradient-13" x1="-7323.56" y1="571.33" x2="-7117.3" y2="571.33" gradientTransform="translate(578.58 -6624.92) rotate(-83.94)" xlink:href="#linear-gradient-10"/><linearGradient id="linear-gradient-14" x1="-7135.65" y1="707.71" x2="-6907.92" y2="707.71" gradientTransform="matrix(0.02, -1, 1, 0.02, 67.95, -6664.35)" xlink:href="#linear-gradient-10"/><linearGradient id="linear-gradient-15" x1="821.05" y1="-932.75" x2="1033.35" y2="-932.75" gradientTransform="translate(-720.66 1042.33) rotate(14.29)" xlink:href="#linear-gradient-10"/></defs><path class="cls-1" d="M266.2,502.59c0,130.09,105.46,235.53,235.53,235.53S737.27,632.68,737.27,502.59,631.81,267.05,501.73,267.05,266.2,372.52,266.2,502.59Z" transform="translate(-249.6 -249.61)"/><path class="cls-2" d="M261,497.37C261,627.44,366.41,732.9,496.51,732.9S732.05,627.44,732.05,497.37,626.58,261.85,496.51,261.85,261,367.29,261,497.37Z" transform="translate(-249.6 -249.61)"/><path class="cls-3" d="M264.46,500c0,130.12,105.45,235.54,235.54,235.54S735.52,630.1,735.52,500,630.1,264.47,500,264.47,264.46,369.92,264.46,500Z" transform="translate(-249.6 -249.61)"/><path class="cls-4" d="M275.05,500c0,124.25,100.71,224.93,225,224.93S724.94,624.23,724.94,500,624.24,275.06,500,275.06,275.05,375.77,275.05,500Z" transform="translate(-249.6 -249.61)"/><path class="cls-5" d="M499.73,296.18c-112.58,0-203.86,91.26-203.86,203.8s91.28,203.89,203.86,203.89S703.55,612.59,703.55,500,612.27,296.18,499.73,296.18Zm0,384.79a181,181,0,0,1-181-181c0-99.89,81.05-180.9,181-180.9,92.67,0,180.95,84.66,180.95,180.9C680.68,600,599.65,681,499.73,681Z" transform="translate(-249.6 -249.61)"/><path class="cls-6" d="M500,250c-138.09,0-250,111.92-250,250S361.91,750,500,750,750,638.06,750,500,638.06,250,500,250Zm0,470c-121.49,0-220-98.49-220-220s98.48-220,220-220,220,98.51,220,220S621.48,720,500,720Z" transform="translate(-249.6 -249.61)"/><path class="cls-7" d="M629.92,374.25c32.29,32.38,57.17,75.51,57.17,124.9,0,32-19.7,66.29-34.4,92.33h0c14.7-26,30.16-61.42,30.16-93.43,0-49.38-24.92-92.45-57.21-124.88Z" transform="translate(-249.6 -249.61)"/><path class="cls-7" d="M603.26,646.48s-5.48,3.25-5.4,4.3c-28.53,19.12-59,26.51-95.92,26.51h0c49.16,4.49,82.56-13,91.09-19.4S603.26,646.48,603.26,646.48Z" transform="translate(-249.6 -249.61)"/><path class="cls-8" d="M499.63,665.86A167.83,167.83,0,0,1,331.78,498.05c0-92.67,75.16-167.8,167.85-167.8,84,0,169.39,79.47,169.39,167.8C669,605.14,573.45,665.86,499.63,665.86Z" transform="translate(-249.6 -249.61)"/><path class="cls-9" d="M662,455.62A167.85,167.85,0,1,0,343.51,559.76a168,168,0,0,1,45-162.35c-7.39,45.83-18.44,122.68-24.28,199.84a168.7,168.7,0,0,0,58,49.78v.66c2.1-34.55,7-107.23,16.42-199.56,0,0,26.2,128.92,53.32,213.37h37.19c34.68-102,57.61-211.18,57.61-211.18,8.08,79.15,9.73,145.16,12.23,183.82,22.74-17.77,50.39-54.48,61.56-81.51-5.43-56.88-10-90.14-15.93-128.34C652.66,436.26,655.84,441.83,662,455.62ZM512.44,503.16S492.83,441.67,471,353.5a154.11,154.11,0,0,1,35-4,167.57,167.57,0,0,1,45.82,6.36C530.1,442.73,512.44,503.16,512.44,503.16Z" transform="translate(-249.6 -249.61)"/><path class="cls-10" d="M499.63,277c-123.17,0-223,99.84-223,223s99.87,223,223,223,223-99.84,223-223C722.63,381.23,614,277,499.63,277Zm0,388.84a167.81,167.81,0,1,1,0-335.61c84.23,0,168.76,73.84,169.39,167.8C669.82,605.41,573.71,665.86,499.63,665.86Z" transform="translate(-249.6 -249.61)"/><path class="cls-11" d="M523.74,654.83c26.69-78.59,61.67-208,61.67-208,14.16,130.45,18.89,221.64,18.89,221.64l48.39-77c.56-11.23,1.92-20.92,1.92-20.92-5.77-53.86-13.5-131.27-19.6-167.74,0,0-8.79-23.12-11.15-30.21-4.42-13.51,3-20.68,3-20.68l-65.91-37.8C534.23,421,509,498.09,509,498.09s-22.94-67.47-47.59-162.4l-9.53-9.76-67.05,24.34s-25.18,125.79-34.57,251.52L402.31,647,413,642.41c2.3-35.28,7.6-107,17.44-197.79,0,0,28,131,54.7,209.59Z" transform="translate(-249.6 -249.61)"/><path class="cls-12" d="M501.94,283.24c-118.63,0-214.77,96.16-214.77,214.81s96.14,214.8,214.77,214.8,214.88-96.14,214.88-214.8C716.82,383.8,611.91,283.24,501.94,283.24ZM682.85,498.05c0,32-15.46,67.39-30.16,93.43-.13-1.26-1.62,4.7-1.74,3.44-7.07-82.88-21.45-183-28.72-224.79-.36-2.26,3.77,5.05,3.41,3C657.93,405.6,682.85,448.67,682.85,498.05ZM552,325.93l4.68,1.64C527.47,423,503.18,508,503.18,508s-25.73-82.08-51.3-182.09a180.13,180.13,0,0,1,100.15,0ZM375,371.56l5-3.54c-7.21,42.64-23.4,142-30.53,226.45-14.66-26-26.76-64.41-26.76-96.42A178.68,178.68,0,0,1,375,371.56ZM402.31,647c1.95-31.65,8.12-116.88,18.74-214.9,0,0,40.5,137.52,67.23,216.11h31C553.42,541.34,584,434,584,434c9.82,90.26,10.55,166.07,12.85,201.53.11,1.79,6.42,10.94,6.42,10.94s-5.48,3.25-5.4,4.3c-28.53,19.12-59,26.51-95.92,26.51A178.45,178.45,0,0,1,402.31,647Z" transform="translate(-249.6 -249.61)"/><path class="cls-13" d="M349.48,594.47C358.49,502.76,375,402.56,380,368l-8.23,22C364.6,431.31,354,498.81,347.3,569.6Z" transform="translate(-249.6 -249.61)"/><path class="cls-14" d="M421.05,432.13s40.5,137.52,67.23,216.11l-3.15,6C465.86,597.47,440.59,511.75,428,468.49c-2.72-10.89-4.67-21.15-4.67-21.15Z" transform="translate(-249.6 -249.61)"/><path class="cls-13" d="M503.18,508s26.74-82.13,53.53-180.45L549,337.72c-18.56,71.41-36.13,127-43.46,149.49Z" transform="translate(-249.6 -249.61)"/><path class="cls-13" d="M584,434c10.65,98,17.3,180.84,19.27,212.47l-6.42-10.94c-2.33-34.92-7-96.71-15.13-173.83Z" transform="translate(-249.6 -249.61)"/><path class="cls-15" d="M556.71,327.57c-11.68-5.52-30.87-11.82-57.08-10.95-17.4.56-29.34,1.95-47.75,9.31h0a179,179,0,0,1,50.06-7.1c17.44,0,38.86,4.12,54.77,8.74Z" transform="translate(-249.6 -249.61)"/><path class="cls-7" d="M353.46,585l-4,9.45C358.49,502.76,375,402.56,380,368,380,368,372.53,442.66,353.46,585Z" transform="translate(-249.6 -249.61)"/><path class="cls-7" d="M428.89,460.86,486.3,642.62C473.56,573.54,428.89,460.86,428.89,460.86Z" transform="translate(-249.6 -249.61)"/><path class="cls-7" d="M587.71,461.28c7,73.2,14.87,175.36,14.87,175.36C606.84,548.41,587.71,461.28,587.71,461.28Z" transform="translate(-249.6 -249.61)"/><path class="cls-7" d="M293.67,441.09h0c22.63-54.65,39.54-75.85,71.46-106.89l-8.87,7.1c-46.32,37.45-60.59,87.12-62.59,99.79Z" transform="translate(-249.6 -249.61)"/><path class="cls-7" d="M556.35,334.28C550,387.42,503.18,508,503.18,508Z" transform="translate(-249.6 -249.61)"/><path class="cls-16" d="M403.4,637.12c4.26-65.89,15.94-186,15.94-186C400.23,569.1,403.4,637.12,403.4,637.12Z" transform="translate(-249.6 -249.61)"/><path class="cls-16" d="M649.45,591.48c-10.23-128.09-19.79-173.79-19.79-173.79S640.28,544.17,642.43,558,649.45,591.48,649.45,591.48Z" transform="translate(-249.6 -249.61)"/><path class="cls-16" d="M519.3,648.24c13.75-40.84,58.36-186.48,58.36-186.48C538.38,571.23,519.3,648.24,519.3,648.24Z" transform="translate(-249.6 -249.61)"/><path class="cls-17" d="M500,256.33c-133.93,0-242.49,109.3-242.49,244.09S366.09,744.52,500,744.52s242.49-109.29,242.49-244.1S634,256.33,500,256.33Zm0,472.4c-125.28,0-226.84-102.2-226.84-228.31S374.74,272.09,500,272.09,726.84,374.31,726.84,500.42,625.3,728.73,500,728.73Z" transform="translate(-249.6 -249.61)"/><path class="cls-18" d="M487.57,254.59c-65.87,4.15-126.21,33.93-169.87,83.87s-64.9,111.93-60.79,178.42c0,.75,1.09,7.58,1.87,7.54s.42-4.8.36-5.58a246.41,246.41,0,0,1,60.67-178.49C363,291,422.46,259.86,487.6,255.76c.77,0,4.12.05,4.08-.76S488.35,254.55,487.57,254.59Z" transform="translate(-249.6 -249.61)"/><path class="cls-19" d="M518.55,727.93a221.36,221.36,0,0,0,153.58-75.81c39.47-45.19,58.68-101.2,55-161.32,0-.72-1-6.88-1.69-6.84s-.39,4.35-.32,5.06a222.69,222.69,0,0,1-54.86,161.37c-39,44.64-92.81,72.77-151.69,76.5-.7,0-3.77-.07-3.71.65S517.82,728,518.55,727.93Z" transform="translate(-249.6 -249.61)"/><path class="cls-20" d="M740.84,485.34c-.79.05-.9,2-.84,2.76a238.54,238.54,0,0,1-59.63,173.83C637.94,710,579.92,739,515.89,743c-.77,0-1.94.43-1.9,1.2s1,.83,1.71.79c64.77-4.05,123.82-32.55,166.75-81.19s63.31-111.7,59.29-176.43C741.67,486.53,741.61,485.26,740.84,485.34Z" transform="translate(-249.6 -249.61)"/><path class="cls-21" d="M256.49,501.59c.68,66,27.29,127.81,74.87,174s108.4,70.66,175,70c.78,0,7.65-.7,7.63-1.47s-4.79-.67-5.56-.67a246.51,246.51,0,0,1-175.09-69.89c-47-45.72-75-106.73-75.69-171.94,0-.82.24-4.18-.55-4.18S256.46,500.82,256.49,501.59Z" transform="translate(-249.6 -249.61)"/><path class="cls-22" d="M727.14,500.42c1-52-16.33-102.46-49.74-144.09-38.14-47.49-90.83-77-151.74-84.52-.71-.07-7.06-.29-7.14.39s4.31,1.2,5,1.29A229.89,229.89,0,0,1,675.35,357.9c33.47,41.67,51.76,92.42,50.61,144.52C725.82,509,727,507.73,727.14,500.42Z" transform="translate(-249.6 -249.61)"/><path class="cls-23" d="M275.05,500c-2.53,59.63,17.73,114.34,58.47,158.36s94.44,69,154.6,71.66c.72,0,6.93-.27,6.95-1s-4.26-.83-5-.84a222.88,222.88,0,0,1-154.66-71.57C295.14,613.1,272.53,558.94,275.05,500Z" transform="translate(-249.6 -249.61)"/><path class="cls-24" d="M488.14,255.59c0,.75,2,.89,2.73.88A238.47,238.47,0,0,1,663.31,320C710.4,363.56,738,422.21,740.58,486.31c0,.77.39,1.95,1.16,1.92s.86-.93.83-1.71C740,421.71,712.85,362,665.2,318S555,252.16,490.13,254.72C489.37,254.74,488.09,254.81,488.14,255.59Z" transform="translate(-249.6 -249.61)"/><path class="cls-25" d="M465.45,725.67C345.38,707.2,262.58,586,281.05,465.87s133.76-210,253.84-191.56C411.07,255.25,295.14,340.87,276,465.5S341.62,706.61,465.45,725.67Z" transform="translate(-249.6 -249.61)"/><path class="cls-26" d="M724.48,534.91C743.64,410.3,658.82,293.8,535,274.76c120.1,18.47,203,138.9,184.53,259S585.65,744.62,465.55,726.11C589.38,745.16,705.31,659.58,724.48,534.91Z" transform="translate(-249.6 -249.61)"/><path class="cls-27" d="M537.43,274.55a221.12,221.12,0,0,0-167.55,35.57c-49.42,34-81.85,83.57-93.09,142.73-.14.67-.74,6.9-.06,7s1.46-4.13,1.59-4.8a222.71,222.71,0,0,1,93-142.83c48.85-33.64,107.91-47.6,165.88-36.66.7.14,3.64,1,3.78.27S538.12,274.67,537.43,274.55Z" transform="translate(-249.6 -249.61)"/></svg>